<svg xmlns="http://www.w3.org/2000/svg" viewBox="0 0 410 404"><defs><linearGradient id="a" x1="-.828%" x2="57.636%" y1="7.652%" y2="78.411%"><stop offset="0%" stop-color="#41d1ff"/><stop offset="100%" stop-color="#bd34fe"/></linearGradient><linearGradient id="b" x1="43.376%" x2="50.316%" y1="2.242%" y2="89.03%"><stop offset="0%" stop-color="#ffea83"/><stop offset="8.333%" stop-color="#ffdd35"/><stop offset="100%" stop-color="#ffa800"/></linearGradient></defs><path fill="url(#a)" d="M399.641 59.525 215.643 388.545a14.955 14.955 0 0 1-25.372.282L10.468 59.795c-6.54-11.288 3.089-24.991 15.798-22.4l178.402 36.39a15 15 0 0 0 5.842-.003l173.394-35.943c12.672-2.626 22.34 10.925 15.922 22.221Z"/><path fill="url(#b)" d="M292.965.003 156.789 27.451a7.5 7.5 0 0 0-6.001 8.103l12.347 135.542a7.5 7.5 0 0 0 9.654 6.455l37.457-10.734c5.168-1.482 10.255 2.522 10.255 7.897v141.134c0 6.162 8.317 8.315 11.021 2.866l5.515-11.29c1.148-2.352 1.746-4.951 1.746-7.586V166.065a7.5 7.5 0 0 1 5.068-7.072l24.544-7.259c5.168-1.482 10.255 2.522 10.255 7.897v87.489c0 6.162 8.317 8.315 11.021 2.866l36.817-75.347c1.148-2.352 1.746-4.951 1.746-7.586V7.5c0-4.932-4.513-8.65-9.34-7.497Z"/></svg>
